<svg width="97" height="62" viewBox="0 0 97 62" fill="none" xmlns="http://www.w3.org/2000/svg">
<path d="M0.975769 2.75989C0.975769 2.25323 1.1491 1.83989 1.49577 1.51989C1.8691 1.17323 2.33577 0.999893 2.89577 0.999893H14.5758C16.3358 0.999893 17.8958 1.37323 19.2558 2.11989C20.6158 2.83989 21.6691 3.86656 22.4158 5.19989C23.1624 6.50656 23.5358 8.01323 23.5358 9.71989C23.5358 11.4799 23.1624 13.0266 22.4158 14.3599C21.6958 15.6932 20.6558 16.7199 19.2958 17.4399C17.9358 18.1599 16.3624 18.5199 14.5758 18.5199H4.73577V26.2399C4.73577 27.2532 4.41577 28.0266 3.77577 28.5599C3.13577 29.0932 2.20244 29.3599 0.975769 29.3599V2.75989ZM14.5758 15.1999C16.1758 15.1999 17.4424 14.7199 18.3758 13.7599C19.3091 12.7732 19.7758 11.4266 19.7758 9.71989C19.7758 8.06656 19.2958 6.75989 18.3358 5.79989C17.4024 4.81323 16.1491 4.31989 14.5758 4.31989H4.73577V15.1999H14.5758Z" fill="white"/>
<path d="M29.358 5.63989C28.6113 5.63989 27.9846 5.39989 27.478 4.91989C26.9713 4.43989 26.718 3.83989 26.718 3.11989C26.718 2.39989 26.9713 1.81323 27.478 1.35989C27.9846 0.879893 28.6113 0.639893 29.358 0.639893C30.078 0.639893 30.6913 0.879893 31.198 1.35989C31.7046 1.81323 31.958 2.39989 31.958 3.11989C31.958 3.83989 31.7046 4.43989 31.198 4.91989C30.6913 5.39989 30.078 5.63989 29.358 5.63989ZM27.598 11.1999C27.598 10.3199 27.878 9.67989 28.438 9.27989C29.0246 8.85323 29.9046 8.63989 31.078 8.63989V26.7999C31.078 27.6799 30.7846 28.3332 30.198 28.7599C29.638 29.1599 28.7713 29.3599 27.598 29.3599V11.1999Z" fill="white"/>
<path d="M45.5373 29.3599C43.644 29.3599 42.2307 28.8266 41.2973 27.7599C40.364 26.6666 39.8973 25.2399 39.8973 23.4799V11.7999H36.1773C36.1773 10.8932 36.3773 10.1999 36.7773 9.71989C37.1773 9.23989 37.724 8.9999 38.4173 8.9999H39.9373V5.19989C39.9373 4.31989 40.2173 3.67989 40.7773 3.27989C41.364 2.85323 42.2307 2.63989 43.3773 2.63989V8.9999H48.6973C48.6973 10.8666 47.8573 11.7999 46.1773 11.7999H43.4173V23.3599C43.4173 24.4266 43.604 25.1866 43.9773 25.6399C44.3773 26.0666 45.084 26.2799 46.0973 26.2799C47.0307 26.2799 47.9107 26.0399 48.7373 25.5599C49.084 25.9066 49.2573 26.3732 49.2573 26.9599C49.2573 27.5999 48.924 28.1599 48.2573 28.6399C47.5907 29.1199 46.684 29.3599 45.5373 29.3599Z" fill="white"/>
<path d="M70.0358 26.3999C70.0358 28.3732 68.9158 29.3599 66.6758 29.3599V26.7999C66.9158 26.5599 67.1958 26.1999 67.5158 25.7199L67.3558 25.5599C66.5558 26.7066 65.5424 27.6266 64.3158 28.3199C63.1158 29.0132 61.7958 29.3599 60.3558 29.3599C58.9158 29.3599 57.6358 29.0532 56.5158 28.4399C55.4224 27.8266 54.5691 26.9732 53.9558 25.8799C53.3691 24.7866 53.0758 23.5599 53.0758 22.1999V11.1999C53.0758 10.3199 53.3691 9.67989 53.9558 9.27989C54.5424 8.85323 55.4224 8.63989 56.5958 8.63989V22.0399C56.5958 23.3199 56.9691 24.3466 57.7158 25.1199C58.4891 25.8932 59.6224 26.2799 61.1158 26.2799C62.1024 26.2799 63.0091 26.0799 63.8358 25.6799C64.6624 25.2532 65.3158 24.6932 65.7958 23.9999C66.3024 23.2799 66.5558 22.5066 66.5558 21.6799V11.1999C66.5558 10.3199 66.8358 9.67989 67.3958 9.27989C67.9824 8.85323 68.8624 8.63989 70.0358 8.63989V26.3999Z" fill="white"/>
<path d="M26.9758 34.7599C26.9758 34.2532 27.1491 33.8399 27.4958 33.5199C27.8691 33.1732 28.3358 32.9999 28.8958 32.9999H40.5758C42.3358 32.9999 43.8958 33.3732 45.2558 34.1199C46.6158 34.8399 47.6691 35.8666 48.4158 37.1999C49.1624 38.5066 49.5358 40.0132 49.5358 41.7199C49.5358 43.4799 49.1624 45.0266 48.4158 46.3599C47.6958 47.6932 46.6558 48.7199 45.2958 49.4399C43.9358 50.1599 42.3624 50.5199 40.5758 50.5199H30.7358V58.2399C30.7358 59.2532 30.4158 60.0266 29.7758 60.5599C29.1358 61.0932 28.2024 61.3599 26.9758 61.3599V34.7599ZM40.5758 47.1999C42.1758 47.1999 43.4424 46.7199 44.3758 45.7599C45.3091 44.7732 45.7758 43.4266 45.7758 41.7199C45.7758 40.0666 45.2958 38.7599 44.3358 37.7999C43.4024 36.8132 42.1491 36.3199 40.5758 36.3199H30.7358V47.1999H40.5758Z" fill="white"/>
<path d="M55.358 37.6399C54.6113 37.6399 53.9846 37.3999 53.478 36.9199C52.9713 36.4399 52.718 35.8399 52.718 35.1199C52.718 34.3999 52.9713 33.8132 53.478 33.3599C53.9846 32.8799 54.6113 32.6399 55.358 32.6399C56.078 32.6399 56.6913 32.8799 57.198 33.3599C57.7046 33.8132 57.958 34.3999 57.958 35.1199C57.958 35.8399 57.7046 36.4399 57.198 36.9199C56.6913 37.3999 56.078 37.6399 55.358 37.6399ZM53.598 43.1999C53.598 42.3199 53.878 41.6799 54.438 41.2799C55.0246 40.8532 55.9046 40.6399 57.078 40.6399V58.7999C57.078 59.6799 56.7846 60.3332 56.198 60.7599C55.638 61.1599 54.7713 61.3599 53.598 61.3599V43.1999Z" fill="white"/>
<path d="M71.5373 61.3599C69.644 61.3599 68.2307 60.8266 67.2973 59.7599C66.364 58.6666 65.8973 57.2399 65.8973 55.4799V43.7999H62.1773C62.1773 42.8932 62.3773 42.1999 62.7773 41.7199C63.1773 41.2399 63.724 40.9999 64.4173 40.9999H65.9373V37.1999C65.9373 36.3199 66.2173 35.6799 66.7773 35.2799C67.364 34.8532 68.2307 34.6399 69.3773 34.6399V40.9999H74.6973C74.6973 42.8666 73.8573 43.7999 72.1773 43.7999H69.4173V55.3599C69.4173 56.4266 69.604 57.1866 69.9773 57.6399C70.3773 58.0666 71.084 58.2799 72.0973 58.2799C73.0307 58.2799 73.9107 58.0399 74.7373 57.5599C75.084 57.9066 75.2573 58.3732 75.2573 58.9599C75.2573 59.5999 74.924 60.1599 74.2573 60.6399C73.5907 61.1199 72.684 61.3599 71.5373 61.3599Z" fill="white"/>
<path d="M96.0358 58.3999C96.0358 60.3732 94.9158 61.3599 92.6758 61.3599V58.7999C92.9158 58.5599 93.1958 58.1999 93.5158 57.7199L93.3558 57.5599C92.5558 58.7066 91.5424 59.6266 90.3158 60.3199C89.1158 61.0132 87.7958 61.3599 86.3558 61.3599C84.9158 61.3599 83.6358 61.0532 82.5158 60.4399C81.4224 59.8266 80.5691 58.9732 79.9558 57.8799C79.3691 56.7866 79.0758 55.5599 79.0758 54.1999V43.1999C79.0758 42.3199 79.3691 41.6799 79.9558 41.2799C80.5424 40.8532 81.4224 40.6399 82.5958 40.6399V54.0399C82.5958 55.3199 82.9691 56.3466 83.7158 57.1199C84.4891 57.8932 85.6224 58.2799 87.1158 58.2799C88.1024 58.2799 89.0091 58.0799 89.8358 57.6799C90.6624 57.2532 91.3158 56.6932 91.7958 55.9999C92.3024 55.2799 92.5558 54.5066 92.5558 53.6799V43.1999C92.5558 42.3199 92.8358 41.6799 93.3958 41.2799C93.9824 40.8532 94.8624 40.6399 96.0358 40.6399V58.3999Z" fill="white"/>
</svg>
